# xmcd
#
# Track frame offsets:
#	150
#	11770
#	28697
#	39928
#	51521
#	67323
#	75971
#	89350
#	104818
#	112834
#	129483
#	138501
#	156234
#	165877
#
# Disc length: 2382 seconds
#
# Revision: 1
# Processed by: cddbd v1.4PL0 Copyright (c) Steve Scherf et al.
# Submitted via: audiograbber 1.82.02
#
DISCID=b5094c0e
DTITLE=Buddy Davis - One Blood
DYEAR=2001
DGENRE=Christian Country
TTITLE0=We're One Blood
TTITLE1=Why?
TTITLE2=I'll Worship My Creator
TTITLE3=They Think That They've Seen You
TTITLE4=He Makes Dreams Out of Nothing
TTITLE5=I've Got Good News
TTITLE6=Come to Jesus
TTITLE7=I Wish the World Could Love Like Them
TTITLE8=Keepers of the Word
TTITLE9=Here At Home It's Off To Church
TTITLE10=May All Creation Praise Thee
TTITLE11=I Believe
TTITLE12=Big Sam
TTITLE13=Take My Hand
EXTD=
EXTT0=
EXTT1=
EXTT2=
EXTT3=
EXTT4=
EXTT5=
EXTT6=
EXTT7=
EXTT8=
EXTT9=
EXTT10=
EXTT11=
EXTT12=
EXTT13=
PLAYORDER=
